# xmcd
#
# Track frame offsets: 
#        150
#        10986
#        36001
#        52162
#        63194
#        75225
#        90234
#        109513
#        125050
#        137301
#
# Disc length: 2136 seconds
#
# Revision: 0
# Processed by: cddbd v1.5.2PL0 Copyright (c) Steve Scherf et al.
# Submitted via: ExactAudioCopy v0.95b4
#
DISCID=7008560a
DTITLE=The Shouting Matches - GROWNASS Man
DYEAR=2013
DGENRE=Blues
TTITLE0=Avery Hill
TTITLE1=Gallup, NM
TTITLE2=Heaven Knows
TTITLE3=Mother, When?
TTITLE4=Seven Sisters
TTITLE5=Milkman
TTITLE6=New Theme
TTITLE7=Three Dollar Bill
TTITLE8=I'll Be True
TTITLE9=I Need A Change
EXTD=
EXTT0=
EXTT1=
EXTT2=
EXTT3=
EXTT4=
EXTT5=
EXTT6=
EXTT7=
EXTT8=
EXTT9=
PLAYORDER=
